<svg xmlns="http://www.w3.org/2000/svg" viewBox="0 0 314 80" width="314" height="80">
  <!-- TrailCount — primary logo, light background -->

  <!-- Leaf mark -->
  <g transform="translate(0, -2)">
    <path d="M32 72 C16 60 10 44 16 26 C20 14 26 8 32 6 C38 8 44 14 48 26 C54 44 48 60 32 72Z" fill="#6a9e5e"/>
    <path d="M32 72 C38 62 44 48 44 34 C44 22 40 12 32 6 C38 8 44 14 48 26 C54 44 48 60 32 72Z" fill="#4e8040" opacity="0.25"/>
    <!-- Center vein -->
    <path d="M32 9 Q32 42 32 70" fill="none" stroke="#ddd8c4" stroke-width="1.3" stroke-linecap="round"/>
    <!-- Vein pair 1 -->
    <path d="M32 24 Q25 28 17 31" fill="none" stroke="#ddd8c4" stroke-width="0.75" stroke-linecap="round" opacity="0.9"/>
    <path d="M32 24 Q39 28 47 30" fill="none" stroke="#ddd8c4" stroke-width="0.75" stroke-linecap="round" opacity="0.9"/>
    <!-- Vein pair 2 -->
    <path d="M32 38 Q23 43 14 47" fill="none" stroke="#ddd8c4" stroke-width="0.75" stroke-linecap="round" opacity="0.85"/>
    <path d="M32 38 Q41 43 50 46" fill="none" stroke="#ddd8c4" stroke-width="0.75" stroke-linecap="round" opacity="0.85"/>
    <!-- Vein pair 3 -->
    <path d="M32 52 Q25 57 18 61" fill="none" stroke="#ddd8c4" stroke-width="0.65" stroke-linecap="round" opacity="0.7"/>
    <path d="M32 52 Q39 57 46 60" fill="none" stroke="#ddd8c4" stroke-width="0.65" stroke-linecap="round" opacity="0.7"/>
  </g>

  <!-- Wordmark -->
  <text x="68" y="48" font-family="Georgia, 'Times New Roman', serif" font-size="38" font-weight="400" fill="#1e3a18" letter-spacing="0.2">TrailCount</text>
  <!-- Tagline -->
  <text x="69" y="67" font-family="system-ui, -apple-system, sans-serif" font-size="10.5" fill="#7a9e70" letter-spacing="2.8">TRAIL USE INTELLIGENCE</text>
</svg>
